<svg width="56" height="113" viewBox="0 0 56 113" fill="none" xmlns="http://www.w3.org/2000/svg">
<ellipse cx="11.4995" cy="48.5137" rx="5.67348" ry="19.8572" transform="rotate(-28.6498 11.4995 48.5137)" fill="#02934D"/>
<path d="M39.4727 19.4388C8.16314 74.0173 23.0237 94.3375 32.902 110" stroke="#02934D" stroke-width="8"/>
<ellipse cx="37.5" cy="41.5" rx="5.5" ry="13.5" fill="#00B2FE"/>
<ellipse cx="47" cy="28.5" rx="8.5" ry="9" transform="rotate(-90 47 28.5)" fill="#00B2FE"/>
<ellipse cx="27.5" cy="28" rx="8" ry="9.5" transform="rotate(90 27.5 28)" fill="#00B2FE"/>
<ellipse cx="37.5" cy="13.5" rx="5.5" ry="13.5" fill="#00B2FE"/>
<ellipse cx="6.59877" cy="12.2038" rx="6.59877" ry="12.2038" transform="matrix(0.653356 0.757051 -0.481557 0.876415 33.0043 22.8612)" fill="#00B2FE"/>
<ellipse cx="7.14368" cy="11.2729" rx="7.14368" ry="11.2729" transform="matrix(0.481557 -0.876415 0.653356 0.757051 33.948 35.0555)" fill="#00B2FE"/>
<ellipse cx="7.14368" cy="11.2729" rx="7.14368" ry="11.2729" transform="matrix(-0.481557 0.876415 -0.653356 -0.757051 40.7192 21.127)" fill="#00B2FE"/>
<ellipse cx="6.59877" cy="12.2038" rx="6.59877" ry="12.2038" transform="matrix(0.653356 0.757051 -0.481557 0.876415 44.8649 0.740112)" fill="#00B2FE"/>
<ellipse cx="37" cy="27.5" rx="6" ry="9.5" fill="#FFE600"/>
<ellipse cx="35.5145" cy="78.938" rx="5.67348" ry="19.4098" transform="rotate(45 35.5145 78.938)" fill="#02934D"/>
<path d="M3 33C11.568 45.4011 17.952 58.7518 20.64 64.0027M26 87.5L32.5 82L36.264 78.75L47 66.5" stroke="black" stroke-width="2"/>
</svg>
