<svg width="216" height="175" viewBox="0 0 216 175" fill="none" xmlns="http://www.w3.org/2000/svg">
<ellipse cx="131" cy="96.9999" rx="57" ry="26" transform="rotate(21.3161 131 96.9999)" fill="#FFAC23"/>
<ellipse cx="61.022" cy="66.9183" rx="23.9426" ry="18.479" transform="rotate(21.3161 61.022 66.9183)" fill="#1E1816"/>
<ellipse cx="24.7434" cy="55.3636" rx="16.5444" ry="22.9173" transform="rotate(21.3161 24.7434 55.3636)" fill="#FFAC23"/>
<ellipse cx="26.4894" cy="47.9065" rx="4.58864" ry="8.8435" transform="rotate(21.3161 26.4894 47.9065)" fill="black"/>
<path d="M113.428 65.2589C99.7556 77.1493 94.9912 85.6379 90.4277 103.259" stroke="black" stroke-width="11"/>
<path d="M142.462 74.2798C126.131 87.5961 120.684 97.3834 116 118" stroke="black" stroke-width="11"/>
<path d="M167.525 88.1333C153.55 100.301 148.676 108.982 144 127" stroke="black" stroke-width="11"/>
<path d="M97.4341 65.248C87.6373 73.9274 84.1895 80.1081 81.4341 93.248" stroke="black"/>
<path d="M132.43 70.2544C117.235 83.817 111.393 93.3433 106.43 114.254" stroke="black"/>
<path d="M152.433 78.2501C135.409 93.5362 129.88 103.439 126.433 123.25" stroke="black"/>
<path d="M169.431 89.2539C154.811 100.828 149.983 109.506 146.431 128.254" stroke="black"/>
<path d="M180.431 100.253C169.253 109.04 165.751 115.513 163.431 129.253" stroke="black"/>
<ellipse cx="138.5" cy="55.5" rx="77.5" ry="10.5" fill="#47332C"/>
<ellipse cx="59" cy="105.5" rx="4" ry="27.5" fill="#433333"/>
<ellipse cx="81.8029" cy="107.413" rx="4" ry="27.5" transform="rotate(-26.3814 81.8029 107.413)" fill="#433333"/>
<line x1="93.7154" y1="129.301" x2="135.715" y2="172.301" stroke="black" stroke-width="2"/>
<line x1="59.7154" y1="131.301" x2="101.715" y2="174.301" stroke="black" stroke-width="2"/>
<line x1="21.5528" y1="42.2236" x2="0.552786" y2="0.223607" stroke="black"/>
</svg>